<mxfile host="app.diagrams.net" modified="2021-07-17T20:02:27.236Z" agent="5.0 (X11; Linux x86_64) AppleWebKit/537.36 (KHTML, like Gecko) Chrome/91.0.4472.77 Safari/537.36" etag="YxWVG8QRb_jspHUyYXY2" version="14.6.13" type="github">
  <diagram id="9NjOKYgt36LHZMUwH1Ot" name="Page-1">
    <mxGraphModel dx="677" dy="368" grid="1" gridSize="10" guides="1" tooltips="1" connect="1" arrows="1" fold="1" page="1" pageScale="1" pageWidth="827" pageHeight="1169" math="0" shadow="0">
      <root>
        <mxCell id="0" />
        <mxCell id="1" parent="0" />
        <mxCell id="GnRaUNvZvk1C2kV3rp9a-4" style="edgeStyle=orthogonalEdgeStyle;rounded=0;orthogonalLoop=1;jettySize=auto;html=1;entryX=0;entryY=0.5;entryDx=0;entryDy=0;fontSize=14;" edge="1" parent="1" source="GnRaUNvZvk1C2kV3rp9a-1" target="GnRaUNvZvk1C2kV3rp9a-2">
          <mxGeometry relative="1" as="geometry" />
        </mxCell>
        <mxCell id="GnRaUNvZvk1C2kV3rp9a-14" style="edgeStyle=orthogonalEdgeStyle;rounded=0;orthogonalLoop=1;jettySize=auto;html=1;fontSize=14;" edge="1" parent="1" source="GnRaUNvZvk1C2kV3rp9a-1">
          <mxGeometry relative="1" as="geometry">
            <mxPoint x="160" y="220" as="targetPoint" />
          </mxGeometry>
        </mxCell>
        <mxCell id="GnRaUNvZvk1C2kV3rp9a-1" value="&lt;b&gt;LSTM &lt;/b&gt;&lt;br&gt;Cell" style="rounded=0;whiteSpace=wrap;html=1;fontSize=14;" vertex="1" parent="1">
          <mxGeometry x="120" y="240" width="80" height="50" as="geometry" />
        </mxCell>
        <mxCell id="GnRaUNvZvk1C2kV3rp9a-10" style="edgeStyle=orthogonalEdgeStyle;rounded=0;orthogonalLoop=1;jettySize=auto;html=1;fontSize=14;" edge="1" parent="1" source="GnRaUNvZvk1C2kV3rp9a-2">
          <mxGeometry relative="1" as="geometry">
            <mxPoint x="350" y="265" as="targetPoint" />
          </mxGeometry>
        </mxCell>
        <mxCell id="GnRaUNvZvk1C2kV3rp9a-17" style="edgeStyle=orthogonalEdgeStyle;rounded=0;orthogonalLoop=1;jettySize=auto;html=1;entryX=0.5;entryY=1;entryDx=0;entryDy=0;fontSize=14;" edge="1" parent="1" source="GnRaUNvZvk1C2kV3rp9a-2" target="GnRaUNvZvk1C2kV3rp9a-16">
          <mxGeometry relative="1" as="geometry" />
        </mxCell>
        <mxCell id="GnRaUNvZvk1C2kV3rp9a-2" value="&lt;b&gt;LSTM&lt;/b&gt; &lt;br&gt;Cell" style="rounded=0;whiteSpace=wrap;html=1;fontSize=14;" vertex="1" parent="1">
          <mxGeometry x="240" y="240" width="80" height="50" as="geometry" />
        </mxCell>
        <mxCell id="GnRaUNvZvk1C2kV3rp9a-19" style="edgeStyle=orthogonalEdgeStyle;rounded=0;orthogonalLoop=1;jettySize=auto;html=1;entryX=0.5;entryY=1;entryDx=0;entryDy=0;fontSize=14;" edge="1" parent="1" source="GnRaUNvZvk1C2kV3rp9a-3" target="GnRaUNvZvk1C2kV3rp9a-18">
          <mxGeometry relative="1" as="geometry" />
        </mxCell>
        <mxCell id="GnRaUNvZvk1C2kV3rp9a-28" style="edgeStyle=orthogonalEdgeStyle;rounded=0;orthogonalLoop=1;jettySize=auto;html=1;fontSize=14;" edge="1" parent="1" source="GnRaUNvZvk1C2kV3rp9a-3">
          <mxGeometry relative="1" as="geometry">
            <mxPoint x="520" y="265" as="targetPoint" />
          </mxGeometry>
        </mxCell>
        <mxCell id="GnRaUNvZvk1C2kV3rp9a-3" value="&lt;b&gt;LSTM &lt;/b&gt;&lt;br&gt;Cell" style="rounded=0;whiteSpace=wrap;html=1;fontSize=14;" vertex="1" parent="1">
          <mxGeometry x="420" y="240" width="80" height="50" as="geometry" />
        </mxCell>
        <mxCell id="GnRaUNvZvk1C2kV3rp9a-7" value="" style="ellipse;whiteSpace=wrap;html=1;aspect=fixed;fillColor=#cdeb8b;strokeColor=#36393d;" vertex="1" parent="1">
          <mxGeometry x="360" y="260" width="10" height="10" as="geometry" />
        </mxCell>
        <mxCell id="GnRaUNvZvk1C2kV3rp9a-9" value="" style="ellipse;whiteSpace=wrap;html=1;aspect=fixed;fillColor=#cdeb8b;strokeColor=#36393d;fontSize=14;" vertex="1" parent="1">
          <mxGeometry x="380" y="260" width="10" height="10" as="geometry" />
        </mxCell>
        <mxCell id="GnRaUNvZvk1C2kV3rp9a-11" value="" style="endArrow=classic;html=1;fontSize=14;entryX=0;entryY=0.5;entryDx=0;entryDy=0;" edge="1" parent="1" target="GnRaUNvZvk1C2kV3rp9a-3">
          <mxGeometry width="50" height="50" relative="1" as="geometry">
            <mxPoint x="400" y="265" as="sourcePoint" />
            <mxPoint x="280" y="280" as="targetPoint" />
          </mxGeometry>
        </mxCell>
        <mxCell id="GnRaUNvZvk1C2kV3rp9a-15" value="&lt;span style=&quot;font-size: 12px;&quot;&gt;o&lt;sub style=&quot;font-size: 12px;&quot;&gt;1&lt;/sub&gt;&lt;/span&gt;" style="text;html=1;strokeColor=none;fillColor=none;align=center;verticalAlign=middle;whiteSpace=wrap;rounded=0;fontSize=12;" vertex="1" parent="1">
          <mxGeometry x="140" y="200" width="40" height="20" as="geometry" />
        </mxCell>
        <mxCell id="GnRaUNvZvk1C2kV3rp9a-16" value="&lt;font style=&quot;font-size: 12px;&quot;&gt;o&lt;sub style=&quot;font-size: 12px;&quot;&gt;2&lt;/sub&gt;&lt;/font&gt;" style="text;html=1;strokeColor=none;fillColor=none;align=center;verticalAlign=middle;whiteSpace=wrap;rounded=0;fontSize=12;" vertex="1" parent="1">
          <mxGeometry x="260" y="200" width="40" height="20" as="geometry" />
        </mxCell>
        <mxCell id="GnRaUNvZvk1C2kV3rp9a-18" value="&lt;sub style=&quot;font-size: 12px&quot;&gt;o&lt;/sub&gt;&lt;sub&gt;n&lt;/sub&gt;" style="text;html=1;strokeColor=none;fillColor=none;align=center;verticalAlign=middle;whiteSpace=wrap;rounded=0;fontSize=12;" vertex="1" parent="1">
          <mxGeometry x="440" y="200" width="40" height="20" as="geometry" />
        </mxCell>
        <mxCell id="GnRaUNvZvk1C2kV3rp9a-27" style="edgeStyle=orthogonalEdgeStyle;rounded=0;orthogonalLoop=1;jettySize=auto;html=1;entryX=0.5;entryY=1;entryDx=0;entryDy=0;fontSize=14;" edge="1" parent="1" source="GnRaUNvZvk1C2kV3rp9a-21" target="GnRaUNvZvk1C2kV3rp9a-1">
          <mxGeometry relative="1" as="geometry" />
        </mxCell>
        <mxCell id="GnRaUNvZvk1C2kV3rp9a-21" value="(x&lt;i&gt;&lt;sup&gt;1&lt;/sup&gt;,&lt;/i&gt;x&lt;span style=&quot;font-size: 11.6667px&quot;&gt;&lt;i&gt;&lt;sup&gt;2&lt;/sup&gt;,&lt;/i&gt;&lt;/span&gt;x&lt;span style=&quot;font-size: 11.6667px&quot;&gt;&lt;i&gt;&lt;sup&gt;3&lt;/sup&gt;)&lt;sub&gt;1&lt;/sub&gt;&lt;/i&gt;&lt;/span&gt;&lt;i&gt;&lt;br&gt;&lt;/i&gt;" style="text;html=1;strokeColor=none;fillColor=none;align=center;verticalAlign=middle;whiteSpace=wrap;rounded=0;fontSize=14;" vertex="1" parent="1">
          <mxGeometry x="131" y="310" width="60" height="20" as="geometry" />
        </mxCell>
        <mxCell id="GnRaUNvZvk1C2kV3rp9a-26" style="edgeStyle=orthogonalEdgeStyle;rounded=0;orthogonalLoop=1;jettySize=auto;html=1;entryX=0.5;entryY=1;entryDx=0;entryDy=0;fontSize=14;" edge="1" parent="1" source="GnRaUNvZvk1C2kV3rp9a-23" target="GnRaUNvZvk1C2kV3rp9a-2">
          <mxGeometry relative="1" as="geometry" />
        </mxCell>
        <mxCell id="GnRaUNvZvk1C2kV3rp9a-23" value="(x&lt;i&gt;&lt;sup&gt;1&lt;/sup&gt;,&lt;/i&gt;x&lt;span style=&quot;font-size: 11.6667px&quot;&gt;&lt;i&gt;&lt;sup&gt;2&lt;/sup&gt;,&lt;/i&gt;&lt;/span&gt;x&lt;i&gt;&lt;sup style=&quot;font-size: 11.6667px&quot;&gt;3&lt;/sup&gt;&lt;span style=&quot;font-size: 11.6667px&quot;&gt;)&lt;/span&gt;&lt;font size=&quot;1&quot;&gt;2&lt;/font&gt;&lt;/i&gt;&lt;i&gt;&lt;br&gt;&lt;/i&gt;" style="text;html=1;strokeColor=none;fillColor=none;align=center;verticalAlign=middle;whiteSpace=wrap;rounded=0;fontSize=14;" vertex="1" parent="1">
          <mxGeometry x="250" y="310" width="60" height="20" as="geometry" />
        </mxCell>
        <mxCell id="GnRaUNvZvk1C2kV3rp9a-25" style="edgeStyle=orthogonalEdgeStyle;rounded=0;orthogonalLoop=1;jettySize=auto;html=1;exitX=0.5;exitY=0;exitDx=0;exitDy=0;fontSize=14;" edge="1" parent="1" source="GnRaUNvZvk1C2kV3rp9a-24" target="GnRaUNvZvk1C2kV3rp9a-3">
          <mxGeometry relative="1" as="geometry" />
        </mxCell>
        <mxCell id="GnRaUNvZvk1C2kV3rp9a-24" value="(x&lt;i&gt;&lt;sup&gt;1&lt;/sup&gt;,&lt;/i&gt;x&lt;span style=&quot;font-size: 11.6667px&quot;&gt;&lt;i&gt;&lt;sup&gt;2&lt;/sup&gt;,&lt;/i&gt;&lt;/span&gt;x&lt;i&gt;&lt;sup style=&quot;font-size: 11.6667px&quot;&gt;3&lt;/sup&gt;&lt;span style=&quot;font-size: 11.6667px&quot;&gt;)&lt;/span&gt;&lt;font size=&quot;1&quot;&gt;n&lt;/font&gt;&lt;/i&gt;&lt;i&gt;&lt;br&gt;&lt;/i&gt;" style="text;html=1;strokeColor=none;fillColor=none;align=center;verticalAlign=middle;whiteSpace=wrap;rounded=0;fontSize=14;" vertex="1" parent="1">
          <mxGeometry x="430" y="310" width="60" height="20" as="geometry" />
        </mxCell>
        <mxCell id="GnRaUNvZvk1C2kV3rp9a-30" value="Latent&lt;br&gt;&amp;nbsp;Features" style="rounded=1;whiteSpace=wrap;html=1;fontSize=14;strokeColor=#82b366;fillColor=#F7FCAC;" vertex="1" parent="1">
          <mxGeometry x="520" y="240" width="70" height="50" as="geometry" />
        </mxCell>
        <mxCell id="GnRaUNvZvk1C2kV3rp9a-31" value="1" style="ellipse;whiteSpace=wrap;html=1;aspect=fixed;fontSize=14;" vertex="1" parent="1">
          <mxGeometry x="70" y="250" width="30" height="30" as="geometry" />
        </mxCell>
        <mxCell id="GnRaUNvZvk1C2kV3rp9a-32" value="2" style="ellipse;whiteSpace=wrap;html=1;aspect=fixed;fontSize=14;" vertex="1" parent="1">
          <mxGeometry x="70" y="360" width="30" height="30" as="geometry" />
        </mxCell>
        <mxCell id="GnRaUNvZvk1C2kV3rp9a-33" value="Latent&lt;br&gt;&amp;nbsp;Features&amp;nbsp;&amp;nbsp;" style="rounded=1;whiteSpace=wrap;html=1;fontSize=14;" vertex="1" parent="1">
          <mxGeometry x="200" y="480" width="80" height="40" as="geometry" />
        </mxCell>
        <mxCell id="GnRaUNvZvk1C2kV3rp9a-36" style="edgeStyle=orthogonalEdgeStyle;rounded=0;orthogonalLoop=1;jettySize=auto;html=1;exitX=0.5;exitY=0;exitDx=0;exitDy=0;fontSize=12;" edge="1" parent="1" source="GnRaUNvZvk1C2kV3rp9a-34" target="GnRaUNvZvk1C2kV3rp9a-37">
          <mxGeometry relative="1" as="geometry">
            <mxPoint x="310.1428571428571" y="400" as="targetPoint" />
          </mxGeometry>
        </mxCell>
        <mxCell id="GnRaUNvZvk1C2kV3rp9a-34" value="MLP" style="rounded=0;whiteSpace=wrap;html=1;fontSize=14;fillColor=#F7FCAC;" vertex="1" parent="1">
          <mxGeometry x="240" y="410" width="120" height="30" as="geometry" />
        </mxCell>
        <mxCell id="GnRaUNvZvk1C2kV3rp9a-37" value="Class label output &lt;b&gt;Y&lt;/b&gt;" style="rounded=1;whiteSpace=wrap;html=1;fontSize=12;fillColor=none;strokeWidth=3;strokeColor=#FF0000;" vertex="1" parent="1">
          <mxGeometry x="200" y="370" width="200" height="20" as="geometry" />
        </mxCell>
        <mxCell id="GnRaUNvZvk1C2kV3rp9a-42" style="edgeStyle=orthogonalEdgeStyle;rounded=0;orthogonalLoop=1;jettySize=auto;html=1;entryX=0.5;entryY=1;entryDx=0;entryDy=0;fontSize=12;" edge="1" parent="1" source="GnRaUNvZvk1C2kV3rp9a-40" target="GnRaUNvZvk1C2kV3rp9a-34">
          <mxGeometry relative="1" as="geometry" />
        </mxCell>
        <mxCell id="GnRaUNvZvk1C2kV3rp9a-40" value="" style="shape=orEllipse;perimeter=ellipsePerimeter;whiteSpace=wrap;html=1;backgroundOutline=1;fontSize=12;strokeWidth=1;fillColor=none;" vertex="1" parent="1">
          <mxGeometry x="290" y="490" width="20" height="20" as="geometry" />
        </mxCell>
        <mxCell id="GnRaUNvZvk1C2kV3rp9a-41" value="&lt;span style=&quot;font-size: 14px&quot;&gt;(x&lt;/span&gt;&lt;i style=&quot;font-size: 14px&quot;&gt;&lt;sup&gt;1&lt;/sup&gt;,&lt;/i&gt;&lt;span style=&quot;font-size: 14px&quot;&gt;x&lt;/span&gt;&lt;span style=&quot;font-size: 11.6667px&quot;&gt;&lt;i&gt;&lt;sup&gt;2&lt;/sup&gt;,&lt;/i&gt;&lt;/span&gt;&lt;span style=&quot;font-size: 14px&quot;&gt;x&lt;/span&gt;&lt;i style=&quot;font-size: 14px&quot;&gt;&lt;sup style=&quot;font-size: 11.6667px&quot;&gt;3&lt;/sup&gt;&lt;span style=&quot;font-size: 11.6667px&quot;&gt;)&lt;/span&gt;&lt;font size=&quot;1&quot;&gt;n&lt;/font&gt;&lt;/i&gt;" style="rounded=1;whiteSpace=wrap;html=1;fontSize=12;strokeColor=#000000;strokeWidth=1;fillColor=none;" vertex="1" parent="1">
          <mxGeometry x="320" y="480" width="70" height="40" as="geometry" />
        </mxCell>
      </root>
    </mxGraphModel>
  </diagram>
</mxfile>
